<svg width="45" height="43" viewBox="0 0 45 43" fill="none" xmlns="http://www.w3.org/2000/svg">
<path fill-rule="evenodd" clip-rule="evenodd" d="M24.5444 13.1941C24.5444 14.4053 23.5274 15.3882 22.2722 15.3882C21.017 15.3882 20 14.4053 20 13.1941C20 11.982 21.017 11 22.2722 11C23.5274 11 24.5444 11.982 24.5444 13.1941ZM24.5444 20.965C24.5444 22.1689 23.5274 23.1446 22.2722 23.1446C21.017 23.1446 20 22.1689 20 20.965C20 19.761 21.017 18.7854 22.2722 18.7854C23.5274 18.7854 24.5444 19.761 24.5444 20.965ZM24.5444 28.7359C24.5444 29.948 23.5274 30.93 22.2722 30.93C21.017 30.93 20 29.948 20 28.7359C20 27.5247 21.017 26.5418 22.2722 26.5418C23.5274 26.5418 24.5444 27.5247 24.5444 28.7359Z" fill="#A2A2A8"/>
</svg>
